<svg enable-background="new 0 0 2277 2277" height="2277" viewBox="0 0 2277 2277" width="2277" xmlns="http://www.w3.org/2000/svg"><path d="m0 0h2277v2277h-2277z" fill="#fff"/><g fill="#e00"><path d="m759 138h69v69h-69z" stroke-width=".69"/><path d="m897 138h69v69h-69z" stroke-width=".69"/><path d="m1104 138h69v69h-69z" stroke-width=".69"/><path d="m1173 138h69v69h-69z" stroke-width=".69"/><path d="m1242 138h69v69h-69z" stroke-width=".69"/><path d="m1311 138h69v69h-69z" stroke-width=".69"/><path d="m1380 138h69v69h-69z" stroke-width=".69"/><path d="m690 207h69v69h-69z" stroke-width=".69"/><path d="m897 207h69v69h-69z" stroke-width=".69"/><path d="m966 207h69v69h-69z" stroke-width=".69"/><path d="m1035 207h69v69h-69z" stroke-width=".69"/><path d="m1104 207h69v69h-69z" stroke-width=".69"/><path d="m1173 207h69v69h-69z" stroke-width=".69"/><path d="m1380 207h69v69h-69z" stroke-width=".69"/><path d="m1518 207h69v69h-69z" stroke-width=".69"/><path d="m690 276h69v69h-69z" stroke-width=".69"/><path d="m759 276h69v69h-69z" stroke-width=".69"/><path d="m828 276h69v69h-69z" stroke-width=".69"/><path d="m1242 276h69v69h-69z" stroke-width=".69"/><path d="m1311 276h69v69h-69z" stroke-width=".69"/><path d="m1380 276h69v69h-69z" stroke-width=".69"/><path d="m1449 276h69v69h-69z" stroke-width=".69"/><path d="m1518 276h69v69h-69z" stroke-width=".69"/><path d="m690 345h69v69h-69z" stroke-width=".69"/><path d="m759 345h69v69h-69z" stroke-width=".69"/><path d="m828 345h69v69h-69z" stroke-width=".69"/><path d="m966 345h69v69h-69z" stroke-width=".69"/><path d="m1035 345h69v69h-69z" stroke-width=".69"/><path d="m1104 345h69v69h-69z" stroke-width=".69"/><path d="m1173 345h69v69h-69z" stroke-width=".69"/><path d="m1311 345h69v69h-69z" stroke-width=".69"/><path d="m690 414h69v69h-69z" stroke-width=".69"/><path d="m759 414h69v69h-69z" stroke-width=".69"/><path d="m828 414h69v69h-69z" stroke-width=".69"/><path d="m966 414h69v69h-69z" stroke-width=".69"/><path d="m1173 414h69v69h-69z" stroke-width=".69"/><path d="m1242 414h69v69h-69z" stroke-width=".69"/><path d="m1380 414h69v69h-69z" stroke-width=".69"/><path d="m690 483h69v69h-69z" stroke-width=".69"/><path d="m759 483h69v69h-69z" stroke-width=".69"/><path d="m828 483h69v69h-69z" stroke-width=".69"/><path d="m1380 483h69v69h-69z" stroke-width=".69"/><path d="m1518 483h69v69h-69z" stroke-width=".69"/><path d="m690 552h69v69h-69z" stroke-width=".69"/><path d="m828 552h69v69h-69z" stroke-width=".69"/><path d="m966 552h69v69h-69z" stroke-width=".69"/><path d="m1104 552h69v69h-69z" stroke-width=".69"/><path d="m1242 552h69v69h-69z" stroke-width=".69"/><path d="m1380 552h69v69h-69z" stroke-width=".69"/><path d="m1518 552h69v69h-69z" stroke-width=".69"/><path d="m759 621h69v69h-69z" stroke-width=".69"/><path d="m828 621h69v69h-69z" stroke-width=".69"/><path d="m897 621h69v69h-69z" stroke-width=".69"/><path d="m966 621h69v69h-69z" stroke-width=".69"/><path d="m1035 621h69v69h-69z" stroke-width=".69"/><path d="m1104 621h69v69h-69z" stroke-width=".69"/><path d="m1173 621h69v69h-69z" stroke-width=".69"/><path d="m1518 621h69v69h-69z" stroke-width=".69"/><path d="m276 690h69v69h-69z" stroke-width=".69"/><path d="m483 690h69v69h-69z" stroke-width=".69"/><path d="m552 690h69v69h-69z" stroke-width=".69"/><path d="m621 690h69v69h-69z" stroke-width=".69"/><path d="m690 690h69v69h-69z" stroke-width=".69"/><path d="m828 690h69v69h-69z" stroke-width=".69"/><path d="m897 690h69v69h-69z" stroke-width=".69"/><path d="m1035 690h69v69h-69z" stroke-width=".69"/><path d="m1173 690h69v69h-69z" stroke-width=".69"/><path d="m1242 690h69v69h-69z" stroke-width=".69"/><path d="m1311 690h69v69h-69z" stroke-width=".69"/><path d="m1380 690h69v69h-69z" stroke-width=".69"/><path d="m1449 690h69v69h-69z" stroke-width=".69"/><path d="m1518 690h69v69h-69z" stroke-width=".69"/><path d="m1587 690h69v69h-69z" stroke-width=".69"/><path d="m1725 690h69v69h-69z" stroke-width=".69"/><path d="m1794 690h69v69h-69z" stroke-width=".69"/><path d="m1863 690h69v69h-69z" stroke-width=".69"/><path d="m1932 690h69v69h-69z" stroke-width=".69"/><path d="m2001 690h69v69h-69z" stroke-width=".69"/><path d="m138 759h69v69h-69z" stroke-width=".69"/><path d="m345 759h69v69h-69z" stroke-width=".69"/><path d="m414 759h69v69h-69z" stroke-width=".69"/><path d="m483 759h69v69h-69z" stroke-width=".69"/><path d="m621 759h69v69h-69z" stroke-width=".69"/><path d="m690 759h69v69h-69z" stroke-width=".69"/><path d="m759 759h69v69h-69z" stroke-width=".69"/><path d="m828 759h69v69h-69z" stroke-width=".69"/><path d="m966 759h69v69h-69z" stroke-width=".69"/><path d="m1035 759h69v69h-69z" stroke-width=".69"/><path d="m1311 759h69v69h-69z" stroke-width=".69"/><path d="m1449 759h69v69h-69z" stroke-width=".69"/><path d="m1518 759h69v69h-69z" stroke-width=".69"/><path d="m1656 759h69v69h-69z" stroke-width=".69"/><path d="m1725 759h69v69h-69z" stroke-width=".69"/><path d="m1863 759h69v69h-69z" stroke-width=".69"/><path d="m2001 759h69v69h-69z" stroke-width=".69"/><path d="m2070 759h69v69h-69z" stroke-width=".69"/><path d="m138 828h69v69h-69z" stroke-width=".69"/><path d="m207 828h69v69h-69z" stroke-width=".69"/><path d="m345 828h69v69h-69z" stroke-width=".69"/><path d="m552 828h69v69h-69z" stroke-width=".69"/><path d="m621 828h69v69h-69z" stroke-width=".69"/><path d="m690 828h69v69h-69z" stroke-width=".69"/><path d="m828 828h69v69h-69z" stroke-width=".69"/><path d="m966 828h69v69h-69z" stroke-width=".69"/><path d="m1311 828h69v69h-69z" stroke-width=".69"/><path d="m1380 828h69v69h-69z" stroke-width=".69"/><path d="m1449 828h69v69h-69z" stroke-width=".69"/><path d="m1587 828h69v69h-69z" stroke-width=".69"/><path d="m1725 828h69v69h-69z" stroke-width=".69"/><path d="m1863 828h69v69h-69z" stroke-width=".69"/><path d="m1932 828h69v69h-69z" stroke-width=".69"/><path d="m2070 828h69v69h-69z" stroke-width=".69"/><path d="m138 897h69v69h-69z" stroke-width=".69"/><path d="m207 897h69v69h-69z" stroke-width=".69"/><path d="m276 897h69v69h-69z" stroke-width=".69"/><path d="m483 897h69v69h-69z" stroke-width=".69"/><path d="m759 897h69v69h-69z" stroke-width=".69"/><path d="m828 897h69v69h-69z" stroke-width=".69"/><path d="m966 897h69v69h-69z" stroke-width=".69"/><path d="m1035 897h69v69h-69z" stroke-width=".69"/><path d="m1104 897h69v69h-69z" stroke-width=".69"/><path d="m1449 897h69v69h-69z" stroke-width=".69"/><path d="m1656 897h69v69h-69z" stroke-width=".69"/><path d="m138 966h69v69h-69z" stroke-width=".69"/><path d="m345 966h69v69h-69z" stroke-width=".69"/><path d="m483 966h69v69h-69z" stroke-width=".69"/><path d="m552 966h69v69h-69z" stroke-width=".69"/><path d="m759 966h69v69h-69z" stroke-width=".69"/><path d="m897 966h69v69h-69z" stroke-width=".69"/><path d="m1104 966h69v69h-69z" stroke-width=".69"/><path d="m1242 966h69v69h-69z" stroke-width=".69"/><path d="m1449 966h69v69h-69z" stroke-width=".69"/><path d="m1518 966h69v69h-69z" stroke-width=".69"/><path d="m1587 966h69v69h-69z" stroke-width=".69"/><path d="m1656 966h69v69h-69z" stroke-width=".69"/><path d="m1863 966h69v69h-69z" stroke-width=".69"/><path d="m2001 966h69v69h-69z" stroke-width=".69"/><path d="m207 1035h69v69h-69z" stroke-width=".69"/><path d="m276 1035h69v69h-69z" stroke-width=".69"/><path d="m345 1035h69v69h-69z" stroke-width=".69"/><path d="m621 1035h69v69h-69z" stroke-width=".69"/><path d="m690 1035h69v69h-69z" stroke-width=".69"/><path d="m759 1035h69v69h-69z" stroke-width=".69"/><path d="m828 1035h69v69h-69z" stroke-width=".69"/><path d="m966 1035h69v69h-69z" stroke-width=".69"/><path d="m1035 1035h69v69h-69z" stroke-width=".69"/><path d="m1242 1035h69v69h-69z" stroke-width=".69"/><path d="m1380 1035h69v69h-69z" stroke-width=".69"/><path d="m1449 1035h69v69h-69z" stroke-width=".69"/><path d="m1518 1035h69v69h-69z" stroke-width=".69"/><path d="m1656 1035h69v69h-69z" stroke-width=".69"/><path d="m1863 1035h69v69h-69z" stroke-width=".69"/><path d="m2001 1035h69v69h-69z" stroke-width=".69"/><path d="m2070 1035h69v69h-69z" stroke-width=".69"/><path d="m276 1104h69v69h-69z" stroke-width=".69"/><path d="m345 1104h69v69h-69z" stroke-width=".69"/><path d="m414 1104h69v69h-69z" stroke-width=".69"/><path d="m552 1104h69v69h-69z" stroke-width=".69"/><path d="m690 1104h69v69h-69z" stroke-width=".69"/><path d="m759 1104h69v69h-69z" stroke-width=".69"/><path d="m897 1104h69v69h-69z" stroke-width=".69"/><path d="m966 1104h69v69h-69z" stroke-width=".69"/><path d="m1104 1104h69v69h-69z" stroke-width=".69"/><path d="m1173 1104h69v69h-69z" stroke-width=".69"/><path d="m1242 1104h69v69h-69z" stroke-width=".69"/><path d="m1311 1104h69v69h-69z" stroke-width=".69"/><path d="m1449 1104h69v69h-69z" stroke-width=".69"/><path d="m1518 1104h69v69h-69z" stroke-width=".69"/><path d="m1656 1104h69v69h-69z" stroke-width=".69"/><path d="m1863 1104h69v69h-69z" stroke-width=".69"/><path d="m1932 1104h69v69h-69z" stroke-width=".69"/><path d="m2070 1104h69v69h-69z" stroke-width=".69"/><path d="m414 1173h69v69h-69z" stroke-width=".69"/><path d="m621 1173h69v69h-69z" stroke-width=".69"/><path d="m690 1173h69v69h-69z" stroke-width=".69"/><path d="m759 1173h69v69h-69z" stroke-width=".69"/><path d="m828 1173h69v69h-69z" stroke-width=".69"/><path d="m897 1173h69v69h-69z" stroke-width=".69"/><path d="m966 1173h69v69h-69z" stroke-width=".69"/><path d="m1035 1173h69v69h-69z" stroke-width=".69"/><path d="m1104 1173h69v69h-69z" stroke-width=".69"/><path d="m1173 1173h69v69h-69z" stroke-width=".69"/><path d="m1311 1173h69v69h-69z" stroke-width=".69"/><path d="m1380 1173h69v69h-69z" stroke-width=".69"/><path d="m1449 1173h69v69h-69z" stroke-width=".69"/><path d="m1587 1173h69v69h-69z" stroke-width=".69"/><path d="m1863 1173h69v69h-69z" stroke-width=".69"/><path d="m207 1242h69v69h-69z" stroke-width=".69"/><path d="m276 1242h69v69h-69z" stroke-width=".69"/><path d="m414 1242h69v69h-69z" stroke-width=".69"/><path d="m552 1242h69v69h-69z" stroke-width=".69"/><path d="m621 1242h69v69h-69z" stroke-width=".69"/><path d="m828 1242h69v69h-69z" stroke-width=".69"/><path d="m966 1242h69v69h-69z" stroke-width=".69"/><path d="m1035 1242h69v69h-69z" stroke-width=".69"/><path d="m1380 1242h69v69h-69z" stroke-width=".69"/><path d="m1449 1242h69v69h-69z" stroke-width=".69"/><path d="m1518 1242h69v69h-69z" stroke-width=".69"/><path d="m1656 1242h69v69h-69z" stroke-width=".69"/><path d="m2001 1242h69v69h-69z" stroke-width=".69"/><path d="m207 1311h69v69h-69z" stroke-width=".69"/><path d="m345 1311h69v69h-69z" stroke-width=".69"/><path d="m414 1311h69v69h-69z" stroke-width=".69"/><path d="m690 1311h69v69h-69z" stroke-width=".69"/><path d="m828 1311h69v69h-69z" stroke-width=".69"/><path d="m897 1311h69v69h-69z" stroke-width=".69"/><path d="m966 1311h69v69h-69z" stroke-width=".69"/><path d="m1035 1311h69v69h-69z" stroke-width=".69"/><path d="m1104 1311h69v69h-69z" stroke-width=".69"/><path d="m1173 1311h69v69h-69z" stroke-width=".69"/><path d="m1449 1311h69v69h-69z" stroke-width=".69"/><path d="m1518 1311h69v69h-69z" stroke-width=".69"/><path d="m1656 1311h69v69h-69z" stroke-width=".69"/><path d="m1725 1311h69v69h-69z" stroke-width=".69"/><path d="m1863 1311h69v69h-69z" stroke-width=".69"/><path d="m1932 1311h69v69h-69z" stroke-width=".69"/><path d="m2070 1311h69v69h-69z" stroke-width=".69"/><path d="m138 1380h69v69h-69z" stroke-width=".69"/><path d="m207 1380h69v69h-69z" stroke-width=".69"/><path d="m276 1380h69v69h-69z" stroke-width=".69"/><path d="m414 1380h69v69h-69z" stroke-width=".69"/><path d="m552 1380h69v69h-69z" stroke-width=".69"/><path d="m621 1380h69v69h-69z" stroke-width=".69"/><path d="m759 1380h69v69h-69z" stroke-width=".69"/><path d="m897 1380h69v69h-69z" stroke-width=".69"/><path d="m966 1380h69v69h-69z" stroke-width=".69"/><path d="m1035 1380h69v69h-69z" stroke-width=".69"/><path d="m1173 1380h69v69h-69z" stroke-width=".69"/><path d="m1380 1380h69v69h-69z" stroke-width=".69"/><path d="m1449 1380h69v69h-69z" stroke-width=".69"/><path d="m1725 1380h69v69h-69z" stroke-width=".69"/><path d="m1794 1380h69v69h-69z" stroke-width=".69"/><path d="m2070 1380h69v69h-69z" stroke-width=".69"/><path d="m276 1449h69v69h-69z" stroke-width=".69"/><path d="m414 1449h69v69h-69z" stroke-width=".69"/><path d="m690 1449h69v69h-69z" stroke-width=".69"/><path d="m966 1449h69v69h-69z" stroke-width=".69"/><path d="m1173 1449h69v69h-69z" stroke-width=".69"/><path d="m1242 1449h69v69h-69z" stroke-width=".69"/><path d="m1311 1449h69v69h-69z" stroke-width=".69"/><path d="m1380 1449h69v69h-69z" stroke-width=".69"/><path d="m1518 1449h69v69h-69z" stroke-width=".69"/><path d="m1587 1449h69v69h-69z" stroke-width=".69"/><path d="m1656 1449h69v69h-69z" stroke-width=".69"/><path d="m1725 1449h69v69h-69z" stroke-width=".69"/><path d="m1863 1449h69v69h-69z" stroke-width=".69"/><path d="m138 1518h69v69h-69z" stroke-width=".69"/><path d="m207 1518h69v69h-69z" stroke-width=".69"/><path d="m414 1518h69v69h-69z" stroke-width=".69"/><path d="m552 1518h69v69h-69z" stroke-width=".69"/><path d="m621 1518h69v69h-69z" stroke-width=".69"/><path d="m897 1518h69v69h-69z" stroke-width=".69"/><path d="m966 1518h69v69h-69z" stroke-width=".69"/><path d="m1104 1518h69v69h-69z" stroke-width=".69"/><path d="m1242 1518h69v69h-69z" stroke-width=".69"/><path d="m1380 1518h69v69h-69z" stroke-width=".69"/><path d="m1518 1518h69v69h-69z" stroke-width=".69"/><path d="m1587 1518h69v69h-69z" stroke-width=".69"/><path d="m1656 1518h69v69h-69z" stroke-width=".69"/><path d="m1725 1518h69v69h-69z" stroke-width=".69"/><path d="m1794 1518h69v69h-69z" stroke-width=".69"/><path d="m2001 1518h69v69h-69z" stroke-width=".69"/><path d="m690 1587h69v69h-69z" stroke-width=".69"/><path d="m759 1587h69v69h-69z" stroke-width=".69"/><path d="m897 1587h69v69h-69z" stroke-width=".69"/><path d="m1035 1587h69v69h-69z" stroke-width=".69"/><path d="m1104 1587h69v69h-69z" stroke-width=".69"/><path d="m1173 1587h69v69h-69z" stroke-width=".69"/><path d="m1242 1587h69v69h-69z" stroke-width=".69"/><path d="m1449 1587h69v69h-69z" stroke-width=".69"/><path d="m1518 1587h69v69h-69z" stroke-width=".69"/><path d="m1794 1587h69v69h-69z" stroke-width=".69"/><path d="m1863 1587h69v69h-69z" stroke-width=".69"/><path d="m2070 1587h69v69h-69z" stroke-width=".69"/><path d="m690 1656h69v69h-69z" stroke-width=".69"/><path d="m759 1656h69v69h-69z" stroke-width=".69"/><path d="m828 1656h69v69h-69z" stroke-width=".69"/><path d="m1035 1656h69v69h-69z" stroke-width=".69"/><path d="m1173 1656h69v69h-69z" stroke-width=".69"/><path d="m1311 1656h69v69h-69z" stroke-width=".69"/><path d="m1518 1656h69v69h-69z" stroke-width=".69"/><path d="m1656 1656h69v69h-69z" stroke-width=".69"/><path d="m1794 1656h69v69h-69z" stroke-width=".69"/><path d="m1863 1656h69v69h-69z" stroke-width=".69"/><path d="m1932 1656h69v69h-69z" stroke-width=".69"/><path d="m2070 1656h69v69h-69z" stroke-width=".69"/><path d="m690 1725h69v69h-69z" stroke-width=".69"/><path d="m828 1725h69v69h-69z" stroke-width=".69"/><path d="m897 1725h69v69h-69z" stroke-width=".69"/><path d="m1104 1725h69v69h-69z" stroke-width=".69"/><path d="m1242 1725h69v69h-69z" stroke-width=".69"/><path d="m1311 1725h69v69h-69z" stroke-width=".69"/><path d="m1380 1725h69v69h-69z" stroke-width=".69"/><path d="m1449 1725h69v69h-69z" stroke-width=".69"/><path d="m1518 1725h69v69h-69z" stroke-width=".69"/><path d="m1794 1725h69v69h-69z" stroke-width=".69"/><path d="m1863 1725h69v69h-69z" stroke-width=".69"/><path d="m2070 1725h69v69h-69z" stroke-width=".69"/><path d="m897 1794h69v69h-69z" stroke-width=".69"/><path d="m1104 1794h69v69h-69z" stroke-width=".69"/><path d="m1449 1794h69v69h-69z" stroke-width=".69"/><path d="m1518 1794h69v69h-69z" stroke-width=".69"/><path d="m1587 1794h69v69h-69z" stroke-width=".69"/><path d="m1656 1794h69v69h-69z" stroke-width=".69"/><path d="m1725 1794h69v69h-69z" stroke-width=".69"/><path d="m1794 1794h69v69h-69z" stroke-width=".69"/><path d="m759 1863h69v69h-69z" stroke-width=".69"/><path d="m897 1863h69v69h-69z" stroke-width=".69"/><path d="m966 1863h69v69h-69z" stroke-width=".69"/><path d="m1104 1863h69v69h-69z" stroke-width=".69"/><path d="m1173 1863h69v69h-69z" stroke-width=".69"/><path d="m1311 1863h69v69h-69z" stroke-width=".69"/><path d="m1380 1863h69v69h-69z" stroke-width=".69"/><path d="m1449 1863h69v69h-69z" stroke-width=".69"/><path d="m1518 1863h69v69h-69z" stroke-width=".69"/><path d="m1725 1863h69v69h-69z" stroke-width=".69"/><path d="m1794 1863h69v69h-69z" stroke-width=".69"/><path d="m2001 1863h69v69h-69z" stroke-width=".69"/><path d="m690 1932h69v69h-69z" stroke-width=".69"/><path d="m759 1932h69v69h-69z" stroke-width=".69"/><path d="m828 1932h69v69h-69z" stroke-width=".69"/><path d="m966 1932h69v69h-69z" stroke-width=".69"/><path d="m1242 1932h69v69h-69z" stroke-width=".69"/><path d="m1380 1932h69v69h-69z" stroke-width=".69"/><path d="m1587 1932h69v69h-69z" stroke-width=".69"/><path d="m1794 1932h69v69h-69z" stroke-width=".69"/><path d="m2001 1932h69v69h-69z" stroke-width=".69"/><path d="m2070 1932h69v69h-69z" stroke-width=".69"/><path d="m966 2001h69v69h-69z" stroke-width=".69"/><path d="m1035 2001h69v69h-69z" stroke-width=".69"/><path d="m1173 2001h69v69h-69z" stroke-width=".69"/><path d="m1311 2001h69v69h-69z" stroke-width=".69"/><path d="m1518 2001h69v69h-69z" stroke-width=".69"/><path d="m1863 2001h69v69h-69z" stroke-width=".69"/><path d="m828 2070h69v69h-69z" stroke-width=".69"/><path d="m966 2070h69v69h-69z" stroke-width=".69"/><path d="m1035 2070h69v69h-69z" stroke-width=".69"/><path d="m1104 2070h69v69h-69z" stroke-width=".69"/><path d="m1311 2070h69v69h-69z" stroke-width=".69"/><path d="m1380 2070h69v69h-69z" stroke-width=".69"/><path d="m1518 2070h69v69h-69z" stroke-width=".69"/><path d="m1656 2070h69v69h-69z" stroke-width=".69"/><path d="m1725 2070h69v69h-69z" stroke-width=".69"/><path d="m1794 2070h69v69h-69z" stroke-width=".69"/><path d="m2070 2070h69v69h-69z" stroke-width=".69"/><g transform="matrix(4.83 0 0 4.83 138 138)"><path d="m15 15h70v70h-70z" fill="none"/><path d="m85 0h-70-15v15 70 15h15 70 15v-15-70-15zm0 85h-70v-70h70z"/></g><g transform="matrix(4.83 0 0 4.83 1656 138)"><path d="m15 15h70v70h-70z" fill="none"/><path d="m85 0h-70-15v15 70 15h15 70 15v-15-70-15zm0 85h-70v-70h70z"/></g><g transform="matrix(4.83 0 0 4.83 138 1656)"><path d="m15 15h70v70h-70z" fill="none"/><path d="m85 0h-70-15v15 70 15h15 70 15v-15-70-15zm0 85h-70v-70h70z"/></g><path d="m276 276h207v207h-207z" stroke-width="2.07"/><path d="m1794 276h207v207h-207z" stroke-width="2.07"/><path d="m276 1794h207v207h-207z" stroke-width="2.07"/></g><svg height="1000" transform="matrix(.621 0 0 .621 828 828)" version="1.1" viewBox="0 0 1000 1000" width="1000" xmlns="http://www.w3.org/2000/svg"><circle cx="499.7999872" cy="500.1999128" fill="#4b5f83" r="499.7999872" stroke-width="7.8093748"/><g transform="matrix(7.8093748 0 0 7.8093748 0 .3999256)"><path d="m95 89h-62c-2.2 0-4-1.8-4-4v-42c0-2.2 1.8-4 4-4h62c2.2 0 4 1.8 4 4v42c0 2.2-1.8 4-4 4z" fill="#fff"/><path d="m95 39h-62c-2.2 0-4 1.8-4 4v1 1 4h4 62 4v-4-1-1c0-2.2-1.8-4-4-4z" fill="#22a7f0"/><path d="m39 45c-1.1 0-2-.9-2-2v-8c0-1.1.9-2 2-2 1.1 0 2 .9 2 2v8c0 1.1-.9 2-2 2z" fill="#22313f"/><path d="m89 45c-1.1 0-2-.9-2-2v-8c0-1.1.9-2 2-2 1.1 0 2 .9 2 2v8c0 1.1-.9 2-2 2z" fill="#22313f"/><g fill="#e6e6e6"><path d="m38 84h-3c-1.1 0-2-.9-2-2v-2c0-1.1.9-2 2-2h3c1.1 0 2 .9 2 2v2c0 1.1-.9 2-2 2z"/><path d="m47 84h-3c-1.1 0-2-.9-2-2v-2c0-1.1.9-2 2-2h3c1.1 0 2 .9 2 2v2c0 1.1-.9 2-2 2z"/><path d="m56 84h-3c-1.1 0-2-.9-2-2v-2c0-1.1.9-2 2-2h3c1.1 0 2 .9 2 2v2c0 1.1-.9 2-2 2z"/><path d="m65 84h-3c-1.1 0-2-.9-2-2v-2c0-1.1.9-2 2-2h3c1.1 0 2 .9 2 2v2c0 1.1-.9 2-2 2z"/><path d="m74 84h-3c-1.1 0-2-.9-2-2v-2c0-1.1.9-2 2-2h3c1.1 0 2 .9 2 2v2c0 1.1-.9 2-2 2z"/><path d="m83 84h-3c-1.1 0-2-.9-2-2v-2c0-1.1.9-2 2-2h3c1.1 0 2 .9 2 2v2c0 1.1-.9 2-2 2z"/><path d="m38 76h-3c-1.1 0-2-.9-2-2v-2c0-1.1.9-2 2-2h3c1.1 0 2 .9 2 2v2c0 1.1-.9 2-2 2z"/><path d="m47 76h-3c-1.1 0-2-.9-2-2v-2c0-1.1.9-2 2-2h3c1.1 0 2 .9 2 2v2c0 1.1-.9 2-2 2z"/><path d="m56 76h-3c-1.1 0-2-.9-2-2v-2c0-1.1.9-2 2-2h3c1.1 0 2 .9 2 2v2c0 1.1-.9 2-2 2z"/><path d="m65 76h-3c-1.1 0-2-.9-2-2v-2c0-1.1.9-2 2-2h3c1.1 0 2 .9 2 2v2c0 1.1-.9 2-2 2z"/><path d="m74 76h-3c-1.1 0-2-.9-2-2v-2c0-1.1.9-2 2-2h3c1.1 0 2 .9 2 2v2c0 1.1-.9 2-2 2z"/><path d="m83 76h-3c-1.1 0-2-.9-2-2v-2c0-1.1.9-2 2-2h3c1.1 0 2 .9 2 2v2c0 1.1-.9 2-2 2z"/><path d="m92 76h-3c-1.1 0-2-.9-2-2v-2c0-1.1.9-2 2-2h3c1.1 0 2 .9 2 2v2c0 1.1-.9 2-2 2z"/><path d="m38 68h-3c-1.1 0-2-.9-2-2v-2c0-1.1.9-2 2-2h3c1.1 0 2 .9 2 2v2c0 1.1-.9 2-2 2z"/><path d="m47 68h-3c-1.1 0-2-.9-2-2v-2c0-1.1.9-2 2-2h3c1.1 0 2 .9 2 2v2c0 1.1-.9 2-2 2z"/><path d="m56 68h-3c-1.1 0-2-.9-2-2v-2c0-1.1.9-2 2-2h3c1.1 0 2 .9 2 2v2c0 1.1-.9 2-2 2z"/><path d="m65 68h-3c-1.1 0-2-.9-2-2v-2c0-1.1.9-2 2-2h3c1.1 0 2 .9 2 2v2c0 1.1-.9 2-2 2z"/><path d="m74 68h-3c-1.1 0-2-.9-2-2v-2c0-1.1.9-2 2-2h3c1.1 0 2 .9 2 2v2c0 1.1-.9 2-2 2z"/><path d="m83 68h-3c-1.1 0-2-.9-2-2v-2c0-1.1.9-2 2-2h3c1.1 0 2 .9 2 2v2c0 1.1-.9 2-2 2z"/><path d="m92 68h-3c-1.1 0-2-.9-2-2v-2c0-1.1.9-2 2-2h3c1.1 0 2 .9 2 2v2c0 1.1-.9 2-2 2z"/><path d="m56 60h-3c-1.1 0-2-.9-2-2v-2c0-1.1.9-2 2-2h3c1.1 0 2 .9 2 2v2c0 1.1-.9 2-2 2z"/><path d="m65 60h-3c-1.1 0-2-.9-2-2v-2c0-1.1.9-2 2-2h3c1.1 0 2 .9 2 2v2c0 1.1-.9 2-2 2z"/><path d="m74 60h-3c-1.1 0-2-.9-2-2v-2c0-1.1.9-2 2-2h3c1.1 0 2 .9 2 2v2c0 1.1-.9 2-2 2z"/><path d="m83 60h-3c-1.1 0-2-.9-2-2v-2c0-1.1.9-2 2-2h3c1.1 0 2 .9 2 2v2c0 1.1-.9 2-2 2z"/><path d="m92 60h-3c-1.1 0-2-.9-2-2v-2c0-1.1.9-2 2-2h3c1.1 0 2 .9 2 2v2c0 1.1-.9 2-2 2z"/></g></g></svg></svg>